<?xml version="1.0" encoding="UTF-8" standalone="no"?>
<svg xmlns:dc="http://purl.org/dc/elements/1.1/" xmlns:cc="http://creativecommons.org/ns#" xmlns:rdf="http://www.w3.org/1999/02/22-rdf-syntax-ns#" xmlns:svg="http://www.w3.org/2000/svg" xmlns="http://www.w3.org/2000/svg" id="Info" width="25" height="25" version="1.1" viewBox="0 0 25 25" xml:space="preserve">
  <metadata id="metadata38">
    <rdf:RDF>
      <cc:Work rdf:about="">
        <dc:format>image/svg+xml</dc:format>
        <dc:type rdf:resource="http://purl.org/dc/dcmitype/StillImage" />
        <dc:title></dc:title>
      </cc:Work>
    </rdf:RDF>
  </metadata>
  <defs id="defs36" />
  <path style="fill:#25b7d3;stroke-width:0.050387" id="path25" d="M 25,12.5 C 25,5.5958 19.4035,0 12.5,0 5.5963,0 0,5.596 0,12.5 0,19.4031 5.5965,25 12.5,25 19.4033,25 25,19.4036 25,12.5 Z" /><path style="fill:#ffffff;stroke-width:0.050387" id="path27" d="m 15.885,18.117 c -0.06989,-0.10239 -0.20397,-0.13882 -0.31593,-0.0858 -1.2386,0.58635 -2.6444,1.2063 -2.9203,1.2604 -0.007,-0.006 -0.01799,-0.0175 -0.03245,-0.0371 -0.03739,-0.0506 -0.05558,-0.1168 -0.05558,-0.20231 0,-0.70063 0.52881,-2.832 1.5717,-6.3346 0.87931,-2.9429 0.98099,-3.5522 0.98099,-3.7546 0,-0.3123 -0.11957,-0.57618 -0.34591,-0.76317 -0.215,-0.17731 -0.51541,-0.26715 -0.89281,-0.26715 -0.62777,0 -1.3554,0.23833 -2.2244,0.72865 -0.84212,0.4753 -1.7813,1.2803 -2.7912,2.3927 -0.079057,0.0871 -0.087321,0.21737 -0.019903,0.31381 0.067519,0.0965 0.19273,0.13322 0.30162,0.0889 0.35457,-0.14471 2.1365,-0.87467 2.3963,-1.0378 0.21268,-0.13333 0.3968,-0.201 0.54726,-0.201 0.0054,0 0.01003,2e-4 0.01391,5e-4 0.0018,0.01 0.0035,0.0252 0.0035,0.047 0,0.15353 -0.03159,0.33527 -0.09352,0.53929 -1.5185,4.9198 -2.2566,7.9359 -2.2566,9.2206 0,0.45338 0.12602,0.81839 0.37448,1.0847 0.2532,0.27173 0.59472,0.40949 1.0151,0.40949 0.44799,0 0.99323,-0.18714 1.6668,-0.57209 0.65181,-0.37247 1.6467,-1.1918 3.0415,-2.5051 0.09034,-0.085 0.10541,-0.22302 0.03552,-0.3254 z" /><path style="fill:#ffffff;stroke-width:0.050387" id="path29" d="m 15.836,3.8631 c -0.24816,-0.254 -0.5657,-0.38279 -0.9437,-0.38279 -0.47062,0 -0.88052,0.18598 -1.2182,0.5528 -0.33225,0.36077 -0.50075,0.80347 -0.50075,1.3158 0,0.40476 0.1241,0.74019 0.36884,0.99691 0.248,0.2606 0.56126,0.39272 0.93095,0.39272 0.45137,0 0.85905,-0.19641 1.2117,-0.58379 0.34646,-0.38057 0.52216,-0.82801 0.52216,-1.3299 5e-5,-0.38566 -0.12476,-0.7092 -0.371,-0.96174 z" />
</svg>