<?xml version="1.0" encoding="UTF-8" standalone="no"?>
<svg xmlns:dc="http://purl.org/dc/elements/1.1/" xmlns:cc="http://creativecommons.org/ns#" xmlns:rdf="http://www.w3.org/1999/02/22-rdf-syntax-ns#" xmlns:svg="http://www.w3.org/2000/svg" xmlns="http://www.w3.org/2000/svg" height="21" width="21.000254" xml:space="preserve" viewBox="0 0 21.000255 21" y="0px" x="0px" id="Help" version="1.1"><metadata id="metadata895"><rdf:RDF><cc:Work rdf:about=""><dc:format>image/svg+xml</dc:format><dc:type rdf:resource="http://purl.org/dc/dcmitype/StillImage" /><dc:title></dc:title></cc:Work></rdf:RDF></metadata><defs id="defs893" />
<path id="path856" d="M 21.000253,10.500253 C 21.000253,4.700696 16.299176,0 10.500299,0 4.7011193,0 0,4.700696 0,10.500253 0,16.298925 4.7011193,21 10.500299,21 16.299176,21 21.000253,16.298925 21.000253,10.500253 Z" style="fill:#25b7d3;stroke-width:0.04232574" />
<path id="path858" d="m 5.8500937,7.347282 c 0,-0.588964 0.1890693,-1.185758 0.5672918,-1.790246 0.378096,-0.604496 0.9300233,-1.105126 1.6554022,-1.501971 0.7254218,-0.39672 1.5717252,-0.59519 2.5389093,-0.59519 0.898916,0 1.692606,0.165961 2.380823,0.497539 0.688218,0.331753 1.219745,0.782813 1.594961,1.353155 0.375049,0.57051 0.562638,1.190411 0.562638,1.860009 0,0.527039 -0.10696,0.98902 -0.320872,1.385698 -0.213918,0.396845 -0.46821,0.739385 -0.762628,1.027623 -0.294543,0.288325 -0.823068,0.773509 -1.585647,1.455502 -0.210825,0.192239 -0.379873,0.361248 -0.506855,0.506893 -0.127143,0.145733 -0.221744,0.279006 -0.283665,0.399853 -0.06202,0.120927 -0.110172,0.241802 -0.144158,0.362729 -0.03417,0.120837 -0.08528,0.333317 -0.153436,0.63705 -0.117836,0.644866 -0.486788,0.96722 -1.10669,0.96722 -0.3224342,0 -0.5937412,-0.105343 -0.8137544,-0.316212 -0.2201321,-0.210745 -0.3301417,-0.523867 -0.3301417,-0.93929 0,-0.520823 0.080529,-0.971883 0.2418098,-1.353158 0.1611733,-0.381357 0.3750478,-0.716152 0.6416983,-1.004391 0.266483,-0.288316 0.626166,-0.630822 1.0788,-1.027666 0.396719,-0.347152 0.68356,-0.609155 0.860273,-0.785865 0.176707,-0.176707 0.325485,-0.373436 0.446408,-0.59057 0.12088,-0.216958 0.181364,-0.452505 0.181364,-0.706793 0,-0.495975 -0.184539,-0.914452 -0.553368,-1.255513 -0.368952,-0.340893 -0.844864,-0.511507 -1.42756,-0.511507 -0.6821238,0 -1.1843154,0.17206 -1.5066237,0.516161 C 8.7826321,6.282452 8.5098851,6.789306 8.2866593,7.458895 8.0758346,8.159598 7.6758991,8.509806 7.0869365,8.509806 6.7396114,8.509806 6.4466747,8.387443 6.2080849,8.142461 5.9694098,7.897565 5.8500937,7.632516 5.8500937,7.347282 Z m 4.5384193,10.192882 c -0.378266,0 -0.7084068,-0.122529 -0.9904663,-0.367384 C 9.1158614,16.927969 8.974875,16.585429 8.974875,16.145151 c 0,-0.390622 0.13629,-0.719155 0.4092067,-0.985806 0.2727457,-0.266528 0.6075439,-0.399897 1.0043883,-0.399897 0.390625,0 0.71916,0.133369 0.98581,0.399897 0.266483,0.266651 0.399895,0.595184 0.399895,0.985806 0,0.43405 -0.139507,0.775074 -0.418521,1.023018 -0.27901,0.247944 -0.601362,0.371995 -0.967141,0.371995 z" style="fill:#ffffff;stroke-width:0.04232574" />
</svg>