<?xml version="1.0" encoding="UTF-8" standalone="no"?>
<!-- Generator: Adobe Illustrator 19.0.0, SVG Export Plug-In . SVG Version: 6.00 Build 0)  -->

<svg
   xmlns:dc="http://purl.org/dc/elements/1.1/"
   xmlns:cc="http://creativecommons.org/ns#"
   xmlns:rdf="http://www.w3.org/1999/02/22-rdf-syntax-ns#"
   xmlns:svg="http://www.w3.org/2000/svg"
   xmlns="http://www.w3.org/2000/svg"
   xmlns:sodipodi="http://sodipodi.sourceforge.net/DTD/sodipodi-0.dtd"
   xmlns:inkscape="http://www.inkscape.org/namespaces/inkscape"
   version="1.1"
   id="Save"
   x="0px"
   y="0px"
   viewBox="0 0 25 25.543478"
   xml:space="preserve"
   sodipodi:docname="save.svg"
   width="25"
   height="25.543478"
   inkscape:version="0.92.3 (2405546, 2018-03-11)"><metadata
   id="metadata1009"><rdf:RDF><cc:Work
       rdf:about=""><dc:format>image/svg+xml</dc:format><dc:type
         rdf:resource="http://purl.org/dc/dcmitype/StillImage" /><dc:title></dc:title></cc:Work></rdf:RDF></metadata><defs
   id="defs1007" /><sodipodi:namedview
   pagecolor="#ffffff"
   bordercolor="#666666"
   borderopacity="1"
   objecttolerance="10"
   gridtolerance="10"
   guidetolerance="10"
   inkscape:pageopacity="0"
   inkscape:pageshadow="2"
   inkscape:window-width="1920"
   inkscape:window-height="1017"
   id="namedview1005"
   showgrid="true"
   inkscape:zoom="33.198298"
   inkscape:cx="12.5"
   inkscape:cy="14.097445"
   inkscape:window-x="-8"
   inkscape:window-y="-8"
   inkscape:window-maximized="1"
   inkscape:current-layer="Save"
   fit-margin-top="0"
   fit-margin-left="0"
   fit-margin-right="0"
   fit-margin-bottom="0"><inkscape:grid
     type="xygrid"
     id="grid6100"
     originx="0"
     originy="5.94e-006" /></sodipodi:namedview>
<polygon
   style="fill:#424a60"
   points="46.5,47 0.5,47 0.5,0 38.5,0 46.5,8 "
   id="polygon954"
   transform="matrix(0.54347826,0,0,0.54347826,-0.27173913,1.2084961e-8)" />
<rect
   x="4.8913045"
   style="fill:#c7cac7;stroke-width:0.54347825"
   width="14.130435"
   height="8.695652"
   id="rect956"
   y="0" />
<polygon
   style="fill:#e7eced"
   points="24.5,16 9.5,16 9.5,0 16.5,0 "
   id="polygon960"
   transform="matrix(0.54347826,0,0,0.54347826,-0.27173913,1.2084961e-8)" />
<path
   style="color:#000000;font-style:normal;font-variant:normal;font-weight:normal;font-stretch:normal;font-size:medium;line-height:normal;font-family:sans-serif;font-variant-ligatures:normal;font-variant-position:normal;font-variant-caps:normal;font-variant-numeric:normal;font-variant-alternates:normal;font-feature-settings:normal;text-indent:0;text-align:start;text-decoration:none;text-decoration-line:none;text-decoration-style:solid;text-decoration-color:#000000;letter-spacing:normal;word-spacing:normal;text-transform:none;writing-mode:lr-tb;direction:ltr;text-orientation:mixed;dominant-baseline:auto;baseline-shift:baseline;text-anchor:start;white-space:normal;shape-padding:0;clip-rule:nonzero;display:inline;overflow:visible;visibility:visible;opacity:1;isolation:auto;mix-blend-mode:normal;color-interpolation:sRGB;color-interpolation-filters:linearRGB;solid-color:#000000;solid-opacity:1;vector-effect:none;fill:#424a60;fill-opacity:1;fill-rule:nonzero;stroke:none;stroke-width:1.0869565;stroke-linecap:round;stroke-linejoin:miter;stroke-miterlimit:10;stroke-dasharray:none;stroke-dashoffset:0;stroke-opacity:1;color-rendering:auto;image-rendering:auto;shape-rendering:auto;text-rendering:auto;enable-background:accumulate"
   d="m 14.130435,1.630435 v 5.434782 h 3.260869 V 1.630435 Z m 1.086956,1.086956 h 1.086957 v 3.26087 h -1.086957 z"
   id="path958"
   inkscape:connector-curvature="0" />
<rect
   x="3.8043478"
   y="14.130434"
   style="fill:#e7eced;stroke-width:0.54347825"
   width="16.847826"
   height="11.413043"
   id="rect962" />
<rect
   x="3.8043478"
   y="14.130434"
   style="fill:#ebba16;stroke-width:0.54347825"
   width="16.847826"
   height="6.5418477"
   id="rect964" />
<path
   inkscape:connector-curvature="0"
   id="path966"
   d="m 6.5217391,16.847826 h 3.8043479 c 0.300543,0 0.543478,-0.242935 0.543478,-0.543478 0,-0.300544 -0.242935,-0.543479 -0.543478,-0.543479 H 6.5217391 c -0.3005434,0 -0.5434782,0.242935 -0.5434782,0.543479 0,0.300543 0.2429348,0.543478 0.5434782,0.543478 z"
   style="fill:#ffffff;stroke-width:0.54347825" /><path
   inkscape:connector-curvature="0"
   id="path968"
   d="M 11.956522,17.934782 H 6.5217391 c -0.3005434,0 -0.5434782,0.242935 -0.5434782,0.543479 0,0.300543 0.2429348,0.543478 0.5434782,0.543478 h 5.4347829 c 0.300543,0 0.543478,-0.242935 0.543478,-0.543478 0,-0.300544 -0.242935,-0.543479 -0.543478,-0.543479 z"
   style="fill:#ffffff;stroke-width:0.54347825" /><path
   inkscape:connector-curvature="0"
   id="path970"
   d="m 13.972826,18.092391 c -0.201087,-0.201087 -0.565217,-0.201087 -0.766304,0 -0.103261,0.102717 -0.163044,0.238587 -0.163044,0.38587 0,0.146739 0.05924,0.282608 0.157609,0.385869 0.102717,0.09783 0.238587,0.157609 0.38587,0.157609 0.146739,0 0.282608,-0.05978 0.385869,-0.157609 0.09783,-0.103261 0.157609,-0.244565 0.157609,-0.385869 0,-0.141305 -0.05978,-0.283153 -0.157609,-0.38587 z"
   style="fill:#ffffff;stroke-width:0.54347825" />
<g
   id="g974"
   transform="translate(-0.5,-21.456522)">
</g>
<g
   id="g976"
   transform="translate(-0.5,-21.456522)">
</g>
<g
   id="g978"
   transform="translate(-0.5,-21.456522)">
</g>
<g
   id="g980"
   transform="translate(-0.5,-21.456522)">
</g>
<g
   id="g982"
   transform="translate(-0.5,-21.456522)">
</g>
<g
   id="g984"
   transform="translate(-0.5,-21.456522)">
</g>
<g
   id="g986"
   transform="translate(-0.5,-21.456522)">
</g>
<g
   id="g988"
   transform="translate(-0.5,-21.456522)">
</g>
<g
   id="g990"
   transform="translate(-0.5,-21.456522)">
</g>
<g
   id="g992"
   transform="translate(-0.5,-21.456522)">
</g>
<g
   id="g994"
   transform="translate(-0.5,-21.456522)">
</g>
<g
   id="g996"
   transform="translate(-0.5,-21.456522)">
</g>
<g
   id="g998"
   transform="translate(-0.5,-21.456522)">
</g>
<g
   id="g1000"
   transform="translate(-0.5,-21.456522)">
</g>
<g
   id="g1002"
   transform="translate(-0.5,-21.456522)">
</g>
</svg>