<?xml version="1.0"?>
<svg xmlns="http://www.w3.org/2000/svg" height="512px" viewBox="-28 0 438 438" width="512px" class="">
  <!-- Designed by Kiranshastry from Flaticon -->
  <g>
    <script xmlns="" style="fill:null"/>
    <path d="m381.839844 0v438h-381.839844v-438zm-35.917969 140.75v-95h-310v95zm-40 251.5v-50h-50v50zm0-80v-50h-50v50zm0-80v-50h-50v50zm-90 160v-50h-50v50zm0-80v-50h-50v50zm0-80v-50h-50v50zm-90 160v-50h-50v50zm0-80v-50h-50v50zm0-80v-50h-50v50zm0 0" fill="#00efd1" data-original="#00EFD1" class="" style="fill:#E2E2E2" data-old_color="#DDDDDD"/>
    <path d="m302.921875 93.460938.21875-.210938.25-.25h-.511719l.042969.039062zm-149 .1875v-.796876l-.152344.148438h-.507812l.257812.25zm74.40625-.398438.25-.25h-.507813l-.148437-.148438v.796876zm-149.40625.210938v-.421876l.039063-.039062h-.511719l.261719.25zm267-47.710938v95h-310v-95zm0 0" fill="#fedb41" data-original="#FEDB41" class="active-path" style="fill:#C1E583" data-old_color="#C6DCA5"/>
    <g fill="#00acea">
      <path d="m255.921875 342.25h50v50h-50zm0 0" data-original="#000000" class="" style="fill:#000000" data-old_color="#00EFD1"/>
      <path d="m255.921875 262.25h50v50h-50zm0 0" data-original="#000000" class="" style="fill:#000000" data-old_color="#00EFD1"/>
      <path d="m255.921875 182.25h50v50h-50zm0 0" data-original="#000000" class="" style="fill:#000000" data-old_color="#00EFD1"/>
      <path d="m165.921875 342.25h50v50h-50zm0 0" data-original="#000000" class="" style="fill:#000000" data-old_color="#00EFD1"/>
      <path d="m165.921875 262.25h50v50h-50zm0 0" data-original="#000000" class="" style="fill:#000000" data-old_color="#00EFD1"/>
      <path d="m165.921875 182.25h50v50h-50zm0 0" data-original="#000000" class="" style="fill:#000000" data-old_color="#00EFD1"/>
      <path d="m75.921875 342.25h50v50h-50zm0 0" data-original="#000000" class="" style="fill:#000000" data-old_color="#00EFD1"/>
      <path d="m75.921875 262.25h50v50h-50zm0 0" data-original="#000000" class="" style="fill:#000000" data-old_color="#00EFD1"/>
      <path d="m75.921875 182.25h50v50h-50zm0 0" data-original="#000000" class="" style="fill:#000000" data-old_color="#00EFD1"/>
      <path d="m173.050781 85.007812c2.832031-3.132812 2.738281-7.929687-.210937-10.949218-2.953125-3.019532-7.746094-3.222656-10.941406-.460938-.207032-4.339844-3.839844-7.71875-8.183594-7.613281-4.34375.109375-7.808594 3.671875-7.792969 8.015625v.347656l-.355469-.355468c-3.066406-3.0625-8.011718-3.125-11.15625-.140626-3.144531 2.984376-3.335937 7.929688-.433594 11.148438h-.054687c-4.421875 0-8 3.582031-8 8s3.578125 8 8 8h.523437l-.191406.191406c-3.125 3.121094-3.125 8.1875-.003906 11.3125 3.125 3.128906 8.191406 3.128906 11.316406.003906l.363282-.359374c.109374 4.191406 3.441406 7.589843 7.628906 7.78125 4.191406.191406 7.820312-2.886719 8.3125-7.054688 3.253906 2.765625 8.109375 2.484375 11.023437-.636719 2.917969-3.125 2.863281-7.984375-.117187-11.046875l-.191406-.191406h.335937c4.328125-.089844 7.800781-3.605469 7.835937-7.933594.035157-4.328125-3.382812-7.902344-7.707031-8.058594zm0 0" data-original="#000000" class="" style="fill:#000000" data-old_color="#00EFD1"/>
      <path d="m98.230469 85.015625c2.871093-3.164063 2.746093-8.027344-.28125-11.039063-3.03125-3.011718-7.894531-3.105468-11.042969-.214843-.214844-4.300781-3.800781-7.65625-8.105469-7.59375-4.308593.0625-7.789062 3.527343-7.878906 7.832031v.15625l-.164063-.164062c-3.089843-2.976563-7.976562-2.984376-11.078124-.023438-3.101563 2.964844-3.3125 7.84375-.480469 11.066406-4.210938.378906-7.398438 3.964844-7.277344 8.1875.117187 4.226563 3.503906 7.625 7.726563 7.761719l-.199219.207031c-2.042969 2.015625-2.847657 4.972656-2.113281 7.746094.738281 2.773438 2.902343 4.9375 5.675781 5.675781 2.773437.738281 5.730469-.0625 7.746093-2.105469l.183594-.179687c.164063 4.210937 3.574219 7.574219 7.792969 7.675781 4.214844.101563 7.785156-3.085937 8.15625-7.289062 3.210937 2.855468 8.101563 2.667968 11.082031-.429688 2.976563-3.097656 2.976563-7.996094 0-11.09375l-.195312-.191406h.144531c4.351563 0 7.90625-3.484375 7.992187-7.839844.085938-4.355468-3.332031-7.976562-7.683593-8.144531zm0 0" data-original="#000000" class="" style="fill:#000000" data-old_color="#00EFD1"/><path d="m247.921875 85h-.058594c2.902344-3.21875 2.710938-8.164062-.433593-11.148438-3.140626-2.984374-8.089844-2.921874-11.15625.140626l-.351563.355468v-.347656c.007813-4.34375-3.453125-7.902344-7.796875-8.011719s-7.976562 3.269531-8.183594 7.613281c-3.195312-2.761718-7.988281-2.5625-10.941406.460938-2.949219 3.019531-3.042969 7.8125-.210938 10.945312-4.316406.167969-7.722656 3.734376-7.6875 8.058594.035157 4.324219 3.496094 7.835938 7.820313 7.933594h.335937l-.195312.191406c-2.980469 3.0625-3.035156 7.921875-.117188 11.046875 2.914063 3.121094 7.769532 3.402344 11.023438.636719.492188 4.167969 4.121094 7.246094 8.3125 7.054688 4.1875-.191407 7.519531-3.589844 7.628906-7.78125l.363282.359374c3.125 3.125 8.1875 3.125 11.3125 0s3.125-8.191406 0-11.316406l-.191407-.191406h.527344c4.417969 0 8-3.582031 8-8s-3.582031-8-8-8zm0 0" data-original="#000000" class="" style="fill:#000000" data-old_color="#00EFD1"/>
      <path d="m329.921875 93c-.003906-4.136719-3.160156-7.589844-7.28125-7.964844 2.832031-3.222656 2.621094-8.101562-.480469-11.066406-3.101562-2.960938-7.988281-2.953125-11.078125.023438l-.160156.164062v-.15625c-.089844-4.304688-3.574219-7.769531-7.882813-7.832031-4.304687-.0625-7.890624 3.292969-8.105468 7.59375-3.148438-2.890625-8.011719-2.796875-11.042969.214843-3.027344 3.011719-3.152344 7.875-.28125 11.039063-4.351563.167969-7.769531 3.789063-7.683594 8.144531.085938 4.355469 3.640625 7.839844 7.996094 7.839844h.144531l-.195312.191406c-2.976563 3.097656-2.976563 7.996094 0 11.09375 2.980468 3.097656 7.875 3.285156 11.085937.429688.371094 4.203125 3.9375 7.390625 8.15625 7.289062 4.214844-.101562 7.625-3.464844 7.789063-7.675781l.179687.179687c3.125 3.125 8.191407 3.125 11.316407 0s3.125-8.191406 0-11.316406l-.207032-.207031c4.308594-.140625 7.726563-3.675781 7.730469-7.984375zm0 0" data-original="#000000" class="" style="fill:#000000" data-old_color="#00EFD1"/>
    </g>
  </g>
</svg>
